<svg width="57" height="56" viewBox="0 0 57 56" fill="none" xmlns="http://www.w3.org/2000/svg">
<path d="M55.8836 27.9418C55.8836 43.0975 43.5975 55.3836 28.4418 55.3836C13.2861 55.3836 1 43.0975 1 27.9418C1 12.7861 13.2861 0.5 28.4418 0.5C43.5975 0.5 55.8836 12.7861 55.8836 27.9418Z" fill="url(#paint0_linear_869_404)" stroke="white"/>
<path d="M35.1222 28.6659C32.951 26.2469 32.5774 22.8307 31.5496 19.812C31.1615 18.6639 30.6558 17.5387 29.7484 16.7491C29.003 16.1309 28.0386 15.7847 27.1529 15.329C25.6447 14.5077 24.2695 13.4728 23.0719 12.2581C23.7368 10.9184 24.3321 9.52823 24.39 8.02682C24.4054 7.42007 24.2606 6.70205 23.697 6.49362C23.0737 6.26752 22.4639 6.81598 22.0876 7.35472C21.5272 8.17368 21.1284 9.08751 20.9115 10.0493C20.9495 9.86296 19.796 8.89234 19.6268 8.7422C19.1745 8.29354 18.7303 7.84489 18.2535 7.42361C17.4106 6.67698 16.4907 6.01755 15.5087 5.45588C14.9858 5.16619 14.2421 4.62922 13.6333 4.30774C5.72817 9.31097 0.5 17.9997 0.5 27.8808C0.499614 29.9148 0.724682 31.9429 1.17128 33.9297C1.80455 33.5923 3.06206 32.9087 3.14349 32.8946C4.13409 32.7015 5.1399 32.5922 6.14975 32.5678C7.50678 32.5828 8.4965 33.0156 9.66173 33.6276C11.3372 34.5514 12.2184 36.2321 14.0856 36.9113C15.6996 37.5004 17.4692 37.4951 19.0849 38.0868C19.4954 38.2192 19.8801 38.418 20.223 38.675C20.6042 39.0452 20.9323 39.4641 21.1983 39.9203C22.1677 41.316 23.4681 42.4623 24.9889 43.2619C26.5097 44.0615 28.2058 44.4907 29.933 44.5129H29.9411C31.6665 44.4911 33.3655 44.0967 34.9163 43.3579C36.467 42.6191 37.8309 41.5544 38.9102 40.24C40.3133 38.494 41.2153 36.1032 40.3902 34.0206C39.4602 31.6855 36.7995 30.5603 35.1222 28.6659ZM28.2702 21.286C28.2299 21.5333 28.1178 21.764 27.947 21.9508C27.7763 22.1375 27.5542 22.2725 27.3071 22.3395C27.0601 22.4066 26.7985 22.4029 26.5535 22.329C26.3085 22.255 26.0905 22.1139 25.9253 21.9225C25.7601 21.731 25.6548 21.4972 25.6218 21.249C25.5888 21.0007 25.6296 20.7485 25.7393 20.5222C25.849 20.2959 26.023 20.1052 26.2406 19.9727C26.4581 19.8403 26.7101 19.7716 26.9665 19.7749C27.0374 19.7749 27.1082 19.7802 27.1782 19.7908C27.5254 19.8492 27.8349 20.0391 28.0394 20.3191C28.2438 20.5991 28.3268 20.9466 28.2702 21.286Z" fill="#E1E7EE"/>
<defs>
<linearGradient id="paint0_linear_869_404" x1="0.5" y1="27.9418" x2="56.3836" y2="27.9418" gradientUnits="userSpaceOnUse">
<stop stop-color="#044F56"/>
<stop offset="0.82" stop-color="#5BC0C9"/>
<stop offset="0.97" stop-color="#5BC0C9"/>
</linearGradient>
</defs>
</svg>
